<svg width="80" height="32" viewBox="0 0 100 36" fill="none" xmlns="http://www.w3.org/2000/svg">
<rect x="0.5" y="0.5" width="99" height="35" rx="1.5" fill="white"/>
<rect x="0.5" y="0.5" width="99" height="35" rx="1.5" stroke="#E2E8F0"/>
<path d="M19.1666 19.8333V20.8333C19.1666 21.9379 20.0621 22.8333 21.1666 22.8333H26.8333C27.9379 22.8333 28.8333 21.9379 28.8333 20.8333V19.8333M24 19.5V13.1667M24 19.5L21.8333 17.1667M24 19.5L26.1666 17.1667" stroke="#141414" stroke-width="1.5" stroke-linecap="round" stroke-linejoin="round"/>
<path d="M41.233 23V12.8182H47.3778V13.9119H42.4659V17.3523H47.0597V18.446H42.4659V21.9062H47.4574V23H41.233ZM50.3161 15.3636L52.1456 18.4858L53.9751 15.3636H55.3274L52.8615 19.1818L55.3274 23H53.9751L52.1456 20.0369L50.3161 23H48.9638L51.3899 19.1818L48.9638 15.3636H50.3161ZM57.0016 25.8636V15.3636H58.1351V16.5767H58.2743C58.3605 16.4441 58.4798 16.2751 58.6323 16.0696C58.7881 15.8608 59.0101 15.6752 59.2985 15.5128C59.5901 15.3471 59.9846 15.2642 60.4817 15.2642C61.1247 15.2642 61.6915 15.425 62.182 15.7464C62.6725 16.0679 63.0553 16.5237 63.3304 17.1136C63.6055 17.7036 63.7431 18.3996 63.7431 19.2017C63.7431 20.0104 63.6055 20.7114 63.3304 21.3047C63.0553 21.8946 62.6742 22.352 62.187 22.6768C61.6998 22.9983 61.138 23.1591 60.5016 23.1591C60.0111 23.1591 59.6183 23.0779 59.3233 22.9155C59.0283 22.7498 58.8013 22.5625 58.6422 22.3537C58.4831 22.1416 58.3605 21.9659 58.2743 21.8267H58.1749V25.8636H57.0016ZM58.155 19.1818C58.155 19.7585 58.2395 20.2673 58.4086 20.7081C58.5776 21.1456 58.8245 21.4886 59.1493 21.7372C59.4741 21.9825 59.8719 22.1051 60.3425 22.1051C60.833 22.1051 61.2424 21.9759 61.5705 21.7173C61.9019 21.4555 62.1505 21.1042 62.3162 20.6634C62.4853 20.2192 62.5698 19.7254 62.5698 19.1818C62.5698 18.6449 62.4869 18.161 62.3212 17.7301C62.1588 17.2959 61.9119 16.9529 61.5804 16.701C61.2523 16.4458 60.8397 16.3182 60.3425 16.3182C59.8652 16.3182 59.4642 16.4392 59.1394 16.6811C58.8146 16.9197 58.5693 17.2545 58.4036 17.6854C58.2379 18.1129 58.155 18.6117 58.155 19.1818ZM68.6351 23.1591C67.9457 23.1591 67.3409 22.995 66.8205 22.6669C66.3034 22.3388 65.8991 21.8797 65.6074 21.2898C65.3191 20.6998 65.1749 20.0104 65.1749 19.2216C65.1749 18.4261 65.3191 17.7318 65.6074 17.1385C65.8991 16.5452 66.3034 16.0845 66.8205 15.7564C67.3409 15.4283 67.9457 15.2642 68.6351 15.2642C69.3245 15.2642 69.9277 15.4283 70.4448 15.7564C70.9651 16.0845 71.3695 16.5452 71.6578 17.1385C71.9495 17.7318 72.0953 18.4261 72.0953 19.2216C72.0953 20.0104 71.9495 20.6998 71.6578 21.2898C71.3695 21.8797 70.9651 22.3388 70.4448 22.6669C69.9277 22.995 69.3245 23.1591 68.6351 23.1591ZM68.6351 22.1051C69.1588 22.1051 69.5897 21.9709 69.9277 21.7024C70.2658 21.4339 70.516 21.081 70.6784 20.6435C70.8409 20.206 70.9221 19.732 70.9221 19.2216C70.9221 18.7112 70.8409 18.2356 70.6784 17.7947C70.516 17.3539 70.2658 16.9976 69.9277 16.7259C69.5897 16.4541 69.1588 16.3182 68.6351 16.3182C68.1114 16.3182 67.6806 16.4541 67.3425 16.7259C67.0044 16.9976 66.7542 17.3539 66.5918 17.7947C66.4294 18.2356 66.3482 18.7112 66.3482 19.2216C66.3482 19.732 66.4294 20.206 66.5918 20.6435C66.7542 21.081 67.0044 21.4339 67.3425 21.7024C67.6806 21.9709 68.1114 22.1051 68.6351 22.1051ZM73.8864 23V15.3636H75.0199V16.517H75.0994C75.2386 16.1392 75.4905 15.8326 75.8551 15.5973C76.2197 15.362 76.6307 15.2443 77.0881 15.2443C77.1742 15.2443 77.282 15.246 77.4112 15.2493C77.5405 15.2526 77.6383 15.2576 77.7045 15.2642V16.4574C77.6648 16.4474 77.5736 16.4325 77.4311 16.4126C77.2919 16.3894 77.1444 16.3778 76.9886 16.3778C76.6174 16.3778 76.286 16.4557 75.9943 16.6115C75.706 16.764 75.4773 16.9761 75.3082 17.2479C75.1425 17.5163 75.0597 17.8229 75.0597 18.1676V23H73.8864ZM82.8949 15.3636V16.358H78.9375V15.3636H82.8949ZM80.0909 13.5341H81.2642V20.8125C81.2642 21.1439 81.3123 21.3925 81.4084 21.5582C81.5078 21.7206 81.6338 21.83 81.7862 21.8864C81.942 21.9394 82.1061 21.9659 82.2784 21.9659C82.4077 21.9659 82.5137 21.9593 82.5966 21.946C82.6795 21.9295 82.7457 21.9162 82.7955 21.9062L83.0341 22.9602C82.9545 22.9901 82.8435 23.0199 82.701 23.0497C82.5585 23.0829 82.3778 23.0994 82.1591 23.0994C81.8277 23.0994 81.5028 23.0282 81.1847 22.8857C80.8698 22.7431 80.608 22.526 80.3991 22.2344C80.1937 21.9427 80.0909 21.5748 80.0909 21.1307V13.5341Z" fill="#334155"/>
</svg>
