<svg width="16" height="16" viewBox="0 0 24 24" fill="none" xmlns="http://www.w3.org/2000/svg">
<rect width="24" height="24" rx="12" fill="#F43F5E"/>
<path d="M11.8523 16.1193C11.2898 16.1193 10.7884 16.0227 10.348 15.8295C9.91051 15.6364 9.5625 15.3679 9.30398 15.0241C9.0483 14.6776 8.90909 14.2756 8.88636 13.8182H9.96023C9.98295 14.0994 10.0795 14.3423 10.25 14.5469C10.4205 14.7486 10.6435 14.9048 10.919 15.0156C11.1946 15.1264 11.5 15.1818 11.8352 15.1818C12.2102 15.1818 12.5426 15.1165 12.8324 14.9858C13.1222 14.8551 13.3494 14.6733 13.5142 14.4403C13.679 14.2074 13.7614 13.9375 13.7614 13.6307C13.7614 13.3097 13.6818 13.027 13.5227 12.7827C13.3636 12.5355 13.1307 12.3423 12.8239 12.2031C12.517 12.0639 12.142 11.9943 11.6989 11.9943H11V11.0568H11.6989C12.0455 11.0568 12.3494 10.9943 12.6108 10.8693C12.875 10.7443 13.081 10.5682 13.2287 10.3409C13.3793 10.1136 13.4545 9.84659 13.4545 9.53977C13.4545 9.24432 13.3892 8.98722 13.2585 8.76847C13.1278 8.54972 12.9432 8.37926 12.7045 8.2571C12.4688 8.13494 12.1903 8.07386 11.8693 8.07386C11.5682 8.07386 11.2841 8.12926 11.017 8.24006C10.7528 8.34801 10.5369 8.50568 10.3693 8.71307C10.2017 8.91761 10.1108 9.16477 10.0966 9.45455H9.07386C9.09091 8.99716 9.22869 8.59659 9.48722 8.25284C9.74574 7.90625 10.0838 7.63636 10.5014 7.44318C10.9219 7.25 11.3835 7.15341 11.8864 7.15341C12.4261 7.15341 12.8892 7.26278 13.2756 7.48153C13.6619 7.69744 13.9588 7.98295 14.1662 8.33807C14.3736 8.69318 14.4773 9.0767 14.4773 9.48864C14.4773 9.98011 14.348 10.3991 14.0895 10.7457C13.8338 11.0923 13.4858 11.3324 13.0455 11.4659V11.5341C13.5966 11.625 14.027 11.8594 14.3366 12.2372C14.6463 12.6122 14.8011 13.0767 14.8011 13.6307C14.8011 14.1051 14.6719 14.5312 14.4134 14.9091C14.1577 15.2841 13.8082 15.5795 13.3651 15.7955C12.9219 16.0114 12.4176 16.1193 11.8523 16.1193Z" fill="white"/>
</svg>
